<svg width="244" height="231" viewBox="0 0 244 231" fill="none" xmlns="http://www.w3.org/2000/svg">
<path d="M123.397 52.8165C122.963 52.7916 122.525 52.8165 122.084 52.8165C109.651 52.8165 99.5718 62.809 99.5718 75.1816C99.5718 87.5543 109.651 97.6217 122.084 97.6217C122.525 97.6217 122.963 97.5716 123.397 97.5467V52.8165Z" fill="#009E7A"/>
<path d="M115.664 159.02C115.023 158.757 114.383 158.473 113.752 158.176C110.066 156.391 106.541 154.286 103.22 151.887C93.6048 144.968 85.0784 136.647 77.9244 127.2C67.8248 113.971 58.7886 96.6882 54.4511 75.2741H85.5029C85.632 93.045 98.6181 107.773 115.664 110.705V159.02Z" fill="#00487C"/>
<path d="M115.664 0.0941757L115.664 39.3081C102.071 41.6459 91.0601 51.485 87.0911 64.3864H52.7101C51.3474 52.8746 51.338 40.3039 53.1513 26.6642C53.53 23.7733 54.7155 21.048 56.5714 18.8015C58.4274 16.5549 60.8786 14.8782 63.6434 13.9639C73.2437 10.814 82.9178 7.89471 92.6576 5.20846C100.662 3.02921 109.034 1.01264 115.664 0.0941757Z" fill="#00487C"/>
<path d="M120.77 52.854C121.205 52.8291 121.643 52.8165 122.084 52.8165C134.517 52.8165 144.596 62.8465 144.596 75.2191C144.596 87.5918 134.517 97.6217 122.084 97.6217C121.643 97.6217 121.205 97.6091 120.77 97.5842V52.854Z" fill="#009E7A"/>
<path d="M128.476 158.926C129.117 158.663 129.757 158.379 130.388 158.082C134.075 156.297 137.599 154.192 140.92 151.792C150.535 144.874 159.062 136.553 166.216 127.106C176.315 113.877 185.352 96.594 189.689 75.1799H158.637C158.508 92.9508 145.522 107.679 128.476 110.611V158.926Z" fill="#00487C"/>
<path d="M128.476 0V39.2139C142.069 41.5518 153.08 51.3908 157.049 64.2922H191.43C192.793 52.7804 192.802 40.2097 190.989 26.57C190.61 23.6791 189.425 20.9539 187.569 18.7073C185.713 16.4607 183.262 14.784 180.497 13.8697C170.897 10.7198 161.222 7.80054 151.483 5.11428C143.478 2.93503 135.106 0.918461 128.476 0Z" fill="#00487C"/>
<path d="M75.0856 189.6V212H69.9656V198.976L64.1736 208.48H63.5976L57.8056 198.976V212H52.6856V189.6H57.8056L63.8856 199.552L69.9656 189.6H75.0856ZM83.1916 193.76C82.637 194.315 81.965 194.592 81.1756 194.592C80.3863 194.592 79.7036 194.315 79.1276 193.76C78.573 193.184 78.2956 192.501 78.2956 191.712C78.2956 190.923 78.573 190.251 79.1276 189.696C79.7036 189.12 80.3863 188.832 81.1756 188.832C81.965 188.832 82.637 189.12 83.1916 189.696C83.7676 190.251 84.0556 190.923 84.0556 191.712C84.0556 192.501 83.7676 193.184 83.1916 193.76ZM78.7756 212V196H83.5756V212H78.7756ZM96.4641 195.552C98.1708 195.552 99.5895 196.139 100.72 197.312C101.872 198.485 102.448 200.107 102.448 202.176V212H97.6481V202.88C97.6481 201.941 97.3815 201.227 96.8481 200.736C96.3361 200.224 95.6748 199.968 94.8641 199.968C93.9468 199.968 93.2215 200.245 92.6881 200.8C92.1548 201.355 91.8881 202.176 91.8881 203.264V212H87.0881V196H91.8881V197.504C92.8481 196.203 94.3735 195.552 96.4641 195.552ZM117.36 189.6H122.16V212H117.36V210.496C116.23 211.797 114.64 212.448 112.592 212.448C110.48 212.448 108.678 211.637 107.184 210.016C105.691 208.373 104.944 206.368 104.944 204C104.944 201.632 105.691 199.637 107.184 198.016C108.678 196.373 110.48 195.552 112.592 195.552C114.64 195.552 116.23 196.203 117.36 197.504V189.6ZM110.8 206.848C111.504 207.552 112.422 207.904 113.552 207.904C114.683 207.904 115.6 207.552 116.304 206.848C117.008 206.144 117.36 205.195 117.36 204C117.36 202.805 117.008 201.856 116.304 201.152C115.6 200.448 114.683 200.096 113.552 200.096C112.422 200.096 111.504 200.448 110.8 201.152C110.096 201.856 109.744 202.805 109.744 204C109.744 205.195 110.096 206.144 110.8 206.848Z" fill="#005C9E"/>
<path d="M129.042 200.416C129.042 200.949 129.33 201.376 129.906 201.696C130.503 201.995 131.218 202.261 132.05 202.496C132.903 202.709 133.757 202.965 134.61 203.264C135.463 203.563 136.178 204.075 136.754 204.8C137.351 205.504 137.65 206.4 137.65 207.488C137.65 209.024 137.053 210.229 135.858 211.104C134.685 211.979 133.202 212.416 131.41 212.416C129.831 212.416 128.477 212.085 127.346 211.424C126.215 210.763 125.394 209.845 124.882 208.672L127.858 206.944C128.413 208.48 129.597 209.248 131.41 209.248C133.223 209.248 134.13 208.651 134.13 207.456C134.13 206.944 133.831 206.528 133.234 206.208C132.658 205.888 131.943 205.621 131.09 205.408C130.258 205.173 129.415 204.907 128.562 204.608C127.709 204.309 126.983 203.819 126.386 203.136C125.81 202.432 125.522 201.547 125.522 200.48C125.522 199.008 126.077 197.824 127.186 196.928C128.317 196.032 129.714 195.584 131.378 195.584C132.701 195.584 133.874 195.883 134.898 196.48C135.943 197.056 136.743 197.867 137.298 198.912L134.386 200.544C133.831 199.328 132.829 198.72 131.378 198.72C130.717 198.72 130.162 198.869 129.714 199.168C129.266 199.445 129.042 199.861 129.042 200.416ZM152.954 196H156.41V212H152.954V209.696C151.652 211.509 149.786 212.416 147.354 212.416C145.156 212.416 143.279 211.605 141.722 209.984C140.164 208.341 139.386 206.347 139.386 204C139.386 201.632 140.164 199.637 141.722 198.016C143.279 196.395 145.156 195.584 147.354 195.584C149.786 195.584 151.652 196.48 152.954 198.272V196ZM144.282 207.68C145.242 208.64 146.447 209.12 147.898 209.12C149.348 209.12 150.554 208.64 151.514 207.68C152.474 206.699 152.954 205.472 152.954 204C152.954 202.528 152.474 201.312 151.514 200.352C150.554 199.371 149.348 198.88 147.898 198.88C146.447 198.88 145.242 199.371 144.282 200.352C143.322 201.312 142.842 202.528 142.842 204C142.842 205.472 143.322 206.699 144.282 207.68ZM171.286 196H175.062L168.822 212H164.822L158.582 196H162.358L166.838 208.16L171.286 196ZM179.345 205.472C179.601 206.688 180.188 207.627 181.105 208.288C182.023 208.928 183.143 209.248 184.465 209.248C186.3 209.248 187.676 208.587 188.593 207.264L191.441 208.928C189.863 211.253 187.527 212.416 184.433 212.416C181.831 212.416 179.729 211.627 178.129 210.048C176.529 208.448 175.729 206.432 175.729 204C175.729 201.611 176.519 199.616 178.097 198.016C179.676 196.395 181.703 195.584 184.177 195.584C186.524 195.584 188.444 196.405 189.937 198.048C191.452 199.691 192.209 201.685 192.209 204.032C192.209 204.395 192.167 204.875 192.081 205.472H179.345ZM179.313 202.656H188.721C188.487 201.355 187.943 200.373 187.089 199.712C186.257 199.051 185.276 198.72 184.145 198.72C182.865 198.72 181.799 199.072 180.945 199.776C180.092 200.48 179.548 201.44 179.313 202.656Z" fill="#009E7A"/>
</svg>
